<svg xmlns="http://www.w3.org/2000/svg"  viewBox="0 0 64 64" width="100px" height="100px"><g data-name="21-cow"><path fill="#555a66" d="M30,16c3.31,0,5,2.92,5,6v3a5.333,5.333,0,0,1-.09.98H34.9A6.173,6.173,0,0,1,29,31H7a5.254,5.254,0,0,1-.98-.09A6.186,6.186,0,0,1,1,25V22c0-3.08,1.69-6,5-6Z"/><path fill="#dce1eb" d="M30,16H6l.09-.99.3-3.2A7.2,7.2,0,0,1,8.86,7.03L9,7l.04-.12A8.364,8.364,0,0,1,14.36,5h7.28a8.364,8.364,0,0,1,5.32,1.88L27,7l.14.03a7.2,7.2,0,0,1,2.47,4.78l.3,3.2Z"/><path fill="#ffb13b" d="M15,37h6a3,3,0,0,1-6,0Z"/><path fill="#ffc247" d="M22,35v2H14V35a4,4,0,1,1,8,0Z"/><polygon fill="#cdd2e1" points="44 55 43.6 59 36.4 59 36 55 44 55"/><path fill="#414952" d="M61,49a3.013,3.013,0,0,1,2,3c0,1.93-1.5,5-2,5s-2-3.07-2-5A3.013,3.013,0,0,1,61,49Z"/><path fill="#333940" d="M25.37,2.12l1.59,4.76A8.364,8.364,0,0,0,21.64,5H21l1.51-3.34A1.615,1.615,0,0,1,23.82,1,1.634,1.634,0,0,1,25.37,2.12Z"/><path fill="#333940" d="M13.49,1.66,15,5h-.64A8.364,8.364,0,0,0,9.04,6.88l1.59-4.76A1.634,1.634,0,0,1,12.18,1,1.615,1.615,0,0,1,13.49,1.66Z"/><path fill="#333940" d="M2.46,8.56l6.4-1.53a7.2,7.2,0,0,0-2.47,4.78l-.3,3.2L6,15a4.98,4.98,0,0,1-5-5C1,9,1.28,8.84,2.46,8.56Z"/><path fill="#333940" d="M33.54,8.56C34.72,8.84,35,9,35,10a4.98,4.98,0,0,1-5,5l-.09.01-.3-3.2a7.2,7.2,0,0,0-2.47-4.78Z"/><path fill="#414952" d="M7,31H9c1,1,2.07,2.54,2,3.86a4.93,4.93,0,0,1-1.51,3.47A6.7,6.7,0,0,1,8.41,39c-.78.4-1.6.66-2.41,1V31l.02-.09A5.254,5.254,0,0,0,7,31Z"/><path fill="#414952" d="M12.36,42.47c.96.49,2.73,1.23,3.2,2.24a9.091,9.091,0,0,1,.4,4.02,2.716,2.716,0,0,1-.15.98,2.026,2.026,0,0,1-1.27,1.03A7.054,7.054,0,0,1,12.3,51c-.66,0-1.31-.02-1.97-.05a2.345,2.345,0,0,1-.83-.15,2.319,2.319,0,0,1-.85-.74c-.46-.56-.91-1.13-1.34-1.72a1.091,1.091,0,0,1-.3-.79.981.981,0,0,1,.21-.42,5.931,5.931,0,0,0,1.02-1.58,10.834,10.834,0,0,0,.2-1.29,2.633,2.633,0,0,1,2.65-2.25A3.815,3.815,0,0,1,12.36,42.47Z"/><polygon fill="#414952" points="15.49 59.06 15 63 7 63 6.78 59 15 59 15.49 59.06"/><path fill="#414952" d="M28.49,59.07C28.25,61.05,28,63,28,63H20l-.5-4H28Z"/><polygon fill="#414952" points="43.6 59 43.2 63 36.8 63 36.4 59 43.6 59"/><path fill="#414952" d="M55.49,59.06,55,63H47l-.5-4H55Z"/><path fill="#414952" d="M56,44v9c-1.01,0-3.28-.76-3.75-.76a8.942,8.942,0,0,1-4.88-1.79,8.978,8.978,0,0,1-2.49-2.18,4.015,4.015,0,0,1-.81-3.14,8.819,8.819,0,0,1,1-2.19,4.017,4.017,0,0,1,1.08-1.53A2.673,2.673,0,0,1,47.62,41a12.853,12.853,0,0,1,5.15,1.3A15.1,15.1,0,0,1,56,44Z"/><path fill="#414952" d="M39.7,45.77a2.146,2.146,0,0,1,.05,2.12,5.625,5.625,0,0,1-1.11,1.95,4.3,4.3,0,0,1-2.52,1.06,11.28,11.28,0,0,1-7.69-1.77,3.193,3.193,0,0,1-1.16-1.12,2.765,2.765,0,0,1,.1-2.56,6.3,6.3,0,0,1,1.75-1.92,6.749,6.749,0,0,1,2.56-1.42,6.841,6.841,0,0,1,2.88.11,5.246,5.246,0,0,1,2.42.98c.27.24.45.57.74.78a11.137,11.137,0,0,0,1.11.51A2.538,2.538,0,0,1,39.7,45.77Z"/><path fill="#414952" d="M36.91,26.34a5.3,5.3,0,0,1,1.41,1.3A8,8,0,0,1,39,29.16c.37.9.88,1.72,1.28,2.61a7,7,0,0,1,.7,3.48,4.011,4.011,0,0,1-1.66,3.02,4.284,4.284,0,0,1-1.53.56A13.467,13.467,0,0,1,35.1,39a12.737,12.737,0,0,1-4.26-.6,11.23,11.23,0,0,1-2.15-1.11,5.653,5.653,0,0,1-2.33-2.24,6.563,6.563,0,0,1-.1-4V31H29a6.173,6.173,0,0,0,5.9-5.02h.01L35,26A3.743,3.743,0,0,1,36.91,26.34Z"/><path fill="#414952" d="M56,37v1.11a1.474,1.474,0,0,1-1.05.81,3.72,3.72,0,0,1-1.45.02,4.238,4.238,0,0,1-1.55-.44,5.962,5.962,0,0,1-1.25-1.06,16.737,16.737,0,0,0-3.96-2.88,16.92,16.92,0,0,1-2.43-1.35,6.354,6.354,0,0,1-2.41-4.67c-.06-.8.16-1.72.1-2.52A13.9,13.9,0,0,0,41,23h1A14,14,0,0,1,56,37Z"/><path fill="#eef2fa" d="M8.65,50.06a2.319,2.319,0,0,0,.85.74,2.345,2.345,0,0,0,.83.15c.66.03,1.31.05,1.97.05a7.054,7.054,0,0,0,2.24-.26,2.026,2.026,0,0,0,1.27-1.03,2.716,2.716,0,0,0,.15-.98,9.091,9.091,0,0,0-.4-4.02c-.47-1.01-2.24-1.75-3.2-2.24a3.815,3.815,0,0,0-1.27-.46,2.633,2.633,0,0,0-2.65,2.25,10.834,10.834,0,0,1-.2,1.29,5.931,5.931,0,0,1-1.02,1.58.981.981,0,0,0-.21.42,1.091,1.091,0,0,0,.3.79C7.74,48.93,8.19,49.5,8.65,50.06ZM26.26,31.05a6.563,6.563,0,0,0,.1,4,5.653,5.653,0,0,0,2.33,2.24,11.23,11.23,0,0,0,2.15,1.11,12.737,12.737,0,0,0,4.26.6,13.467,13.467,0,0,0,2.69-.17,4.284,4.284,0,0,0,1.53-.56,4.011,4.011,0,0,0,1.66-3.02,7,7,0,0,0-.7-3.48c-.4-.89-.91-1.71-1.28-2.61a8,8,0,0,0-.68-1.52,5.3,5.3,0,0,0-1.41-1.3A3.743,3.743,0,0,0,35,26l-.09-.02A5.333,5.333,0,0,0,35,25V23h6a13.9,13.9,0,0,1,1,3.02c.06.8-.16,1.72-.1,2.52a6.354,6.354,0,0,0,2.41,4.67,16.92,16.92,0,0,0,2.43,1.35,16.737,16.737,0,0,1,3.96,2.88,5.962,5.962,0,0,0,1.25,1.06,4.238,4.238,0,0,0,1.55.44,3.72,3.72,0,0,0,1.45-.02A1.474,1.474,0,0,0,56,38.11V44a15.1,15.1,0,0,0-3.23-1.7A12.853,12.853,0,0,0,47.62,41a2.673,2.673,0,0,0-1.47.41,4.017,4.017,0,0,0-1.08,1.53,8.819,8.819,0,0,0-1,2.19,4.015,4.015,0,0,0,.81,3.14,8.978,8.978,0,0,0,2.49,2.18,8.942,8.942,0,0,0,4.88,1.79c.47,0,2.74.76,3.75.76v1.5a8.1,8.1,0,0,1-.06.99l-.45,3.57L55,59H46.5c-.1-.79-.2-1.58-.28-2.25A2.007,2.007,0,0,0,44.23,55H30.77a2.007,2.007,0,0,0-1.99,1.75c-.08.69-.18,1.51-.29,2.32L28,59H19.5c-.11-.9-.22-1.8-.31-2.52a1.7,1.7,0,0,0-3.38.01l-.32,2.57L15,59H6.78L6.05,45.83C6.02,45.28,6,44.72,6,44.17V40c.81-.34,1.63-.6,2.41-1a6.7,6.7,0,0,0,1.08-.67A4.93,4.93,0,0,0,11,34.86C11.07,33.54,10,32,9,31h9a4,4,0,0,0-4,4v2h1a3,3,0,0,0,6,0h1V35a3.995,3.995,0,0,0-4-4h8.26ZM40,47.03a2.917,2.917,0,0,0-.3-1.26,2.538,2.538,0,0,0-.87-1.28,11.137,11.137,0,0,1-1.11-.51c-.29-.21-.47-.54-.74-.78a5.246,5.246,0,0,0-2.42-.98,6.841,6.841,0,0,0-2.88-.11,6.749,6.749,0,0,0-2.56,1.42,6.3,6.3,0,0,0-1.75,1.92,2.765,2.765,0,0,0-.1,2.56,3.193,3.193,0,0,0,1.16,1.12,11.28,11.28,0,0,0,7.69,1.77,4.3,4.3,0,0,0,2.52-1.06,5.625,5.625,0,0,0,1.11-1.95A2.923,2.923,0,0,0,40,47.03Z"/><path fill="#cdd2e1" d="M61,49a1.828,1.828,0,0,1,1,.588V41c0-4.187-2.411-7-6-7h-.331a13.856,13.856,0,0,1,.28,2H56c2.949,0,4,2.583,4,5v8.588A1.828,1.828,0,0,1,61,49Z"/><path fill="#333940" d="M27.612,24.419A1.379,1.379,0,0,0,26.623,24H26.6a2.633,2.633,0,0,0-1.762.848A2.6,2.6,0,0,0,24,26.623a1.354,1.354,0,0,0,.385.958,1.379,1.379,0,0,0,.989.416H25.4a2.616,2.616,0,0,0,1.748-.834l.014-.014A2.6,2.6,0,0,0,28,25.377,1.354,1.354,0,0,0,27.612,24.419Z"/><path fill="#333940" d="M9.4,24H9.377a1.354,1.354,0,0,0-.958.385A1.379,1.379,0,0,0,8,25.377a2.6,2.6,0,0,0,.833,1.773l.014.014A2.616,2.616,0,0,0,10.6,28h.025a1.354,1.354,0,0,0,.958-.385A1.379,1.379,0,0,0,12,26.623a2.611,2.611,0,0,0-.847-1.787A2.616,2.616,0,0,0,9.4,24Z"/><path fill="#333940" d="M10.388,13.581a1.379,1.379,0,0,0,.989.416H11.4a2.633,2.633,0,0,0,1.762-.848A2.6,2.6,0,0,0,14,11.377a1.354,1.354,0,0,0-.385-.958A1.379,1.379,0,0,0,12.623,10H12.6a2.616,2.616,0,0,0-1.748.834l-.014.014A2.6,2.6,0,0,0,10,12.623,1.354,1.354,0,0,0,10.388,13.581Z"/><path fill="#333940" d="M24.6,14h.025a1.354,1.354,0,0,0,.958-.385A1.379,1.379,0,0,0,26,12.623a2.6,2.6,0,0,0-.833-1.773l-.014-.014A2.616,2.616,0,0,0,23.4,10h-.025a1.354,1.354,0,0,0-.958.385,1.379,1.379,0,0,0-.416.989,2.611,2.611,0,0,0,.847,1.787A2.616,2.616,0,0,0,24.6,14Z"/><path fill="#ff9500" d="M18,39a2.986,2.986,0,0,0,2.817-2H15.183A2.986,2.986,0,0,0,18,39Z"/><path fill="#ffe45c" d="M22,35.961V35a3.995,3.995,0,0,0-4-4,3.978,3.978,0,0,0-3.14,1.549C16.162,34.4,18.827,35.727,22,35.961Z"/><path fill="#333940" d="M60,51.25C60,52.7,60.75,55,61,55s1-2.3,1-3.75S61.25,49,61,49A2.636,2.636,0,0,0,60,51.25Z"/><path fill="#414952" d="M23.82,3a1.634,1.634,0,0,1,1.55,1.12l.716,2.142a8.085,8.085,0,0,1,.874.618L25.37,2.12A1.634,1.634,0,0,0,23.82,1a1.615,1.615,0,0,0-1.31.66L21,5h.64c.087,0,.172.009.259.011L22.51,3.66A1.615,1.615,0,0,1,23.82,3Z"/><path fill="#414952" d="M15,5,13.49,1.66A1.615,1.615,0,0,0,12.18,1a1.634,1.634,0,0,0-1.55,1.12L9.04,6.88a8.085,8.085,0,0,1,.874-.618L10.63,4.12A1.634,1.634,0,0,1,12.18,3a1.615,1.615,0,0,1,1.31.66L14.1,5.011c.087,0,.172-.011.259-.011Z"/><path fill="#414952" d="M3.46,10.56,6.9,9.737A7.38,7.38,0,0,1,8.86,7.03L2.46,8.56C1.28,8.84,1,9,1,10a5.7,5.7,0,0,0,1.195,3.266A4.972,4.972,0,0,1,2,12C2,11,2.28,10.84,3.46,10.56Z"/><path fill="#414952" d="M34,12a4.972,4.972,0,0,1-.2,1.266A5.7,5.7,0,0,0,35,10c0-1-.28-1.16-1.46-1.44l-6.4-1.53A7.38,7.38,0,0,1,29.1,9.737l3.444.823C33.72,10.84,34,11,34,12Z"/><path fill="#23272b" d="M27.612,24.417A1.379,1.379,0,0,0,26.623,24H26.6a2.633,2.633,0,0,0-1.762.848,3.363,3.363,0,0,0-.434.556,2.266,2.266,0,0,1,1.2-.4h.025a1.379,1.379,0,0,1,.989.416,1.354,1.354,0,0,1,.385.958,2.252,2.252,0,0,1-.4,1.22,3.378,3.378,0,0,0,.553-.433l.014-.014A2.6,2.6,0,0,0,28,25.375,1.354,1.354,0,0,0,27.612,24.417Z"/><path fill="#23272b" d="M9.419,25.386A1.354,1.354,0,0,1,10.377,25H10.4a2.272,2.272,0,0,1,1.192.4,3.458,3.458,0,0,0-.444-.565A2.616,2.616,0,0,0,9.4,24H9.377a1.354,1.354,0,0,0-.958.385A1.379,1.379,0,0,0,8,25.375a2.6,2.6,0,0,0,.833,1.773l.014.014A3.378,3.378,0,0,0,9.4,27.6a2.252,2.252,0,0,1-.4-1.22A1.379,1.379,0,0,1,9.419,25.386Z"/><path fill="#636978" d="M30,16H6c-3.31,0-5,2.92-5,6v3a6.186,6.186,0,0,0,5.02,5.91A5.254,5.254,0,0,0,7,31H8.294a4.725,4.725,0,0,1-.865-.078A5.39,5.39,0,0,1,3,25.8V23.2C3,20.531,4.491,18,7.412,18H28.588C31.509,18,33,20.531,33,23.2v2.6a4.531,4.531,0,0,1-.079.849h-.009A5.419,5.419,0,0,1,27.706,31H29a6.173,6.173,0,0,0,5.9-5.02h.01A5.333,5.333,0,0,0,35,25V22C35,18.92,33.31,16,30,16Z"/><path fill="#f7faff" d="M29.91,15.01l-.3-3.2a7.2,7.2,0,0,0-2.47-4.78L27,7l-.04-.12A8.364,8.364,0,0,0,21.64,5H14.36A8.364,8.364,0,0,0,9.04,6.88L9,7l-.14.03a7.2,7.2,0,0,0-2.47,4.78l-.3,3.2L6,16H7l.31-3.047C7.654,9.581,10.821,7,14.614,7h6.772c3.793,0,6.96,2.581,7.3,5.953L29,16h1Z"/><polygon fill="#333940" points="36.8 63 43.2 63 43.3 62 36.7 62 36.8 63"/><path fill="#9196aa" d="M36,55l.1,1c3.7.012,6.783.649,7.649,1.509L44,55Z"/><path fill="#333940" d="M46.875,62,47,63h8l.124-1Z"/><path fill="#333940" d="M19.875,62,20,63h8l.124-1Z"/><polygon fill="#333940" points="6.945 62 7 63 15 63 15.124 62 6.945 62"/><path fill="#cdd2e1" d="M18,40a3,3,0,0,1-3-3H14v2h1a3,3,0,0,0,6,0h1V37H21A3,3,0,0,1,18,40Z"/><path fill="#555a66" d="M8,31H7a5.254,5.254,0,0,1-.98-.09L6,31v9c.671-.282,1.344-.524,2-.821Z"/><path fill="#555a66" d="M7.01,47.55a1.091,1.091,0,0,0,.3.79c.328.45.675.881,1.022,1.312l-.265-3.708A10.966,10.966,0,0,1,7.22,47.13.981.981,0,0,0,7.01,47.55Z"/><path fill="#555a66" d="M53,52.386A17.068,17.068,0,0,0,56,53V44a14.506,14.506,0,0,0-3-1.6Z"/><path fill="#555a66" d="M42,23H41c.226.7.56,1.355.783,2.039A11.992,11.992,0,0,1,53,37v1.858c.166.032.333.06.5.082a3.72,3.72,0,0,0,1.45-.02A1.474,1.474,0,0,0,56,38.11V37A14,14,0,0,0,42,23Z"/><path fill="#f7faff" d="M41.783,25.039C41.56,24.355,41.226,23.7,41,23H35v2h6C41.264,25,41.523,25.023,41.783,25.039Z"/><path fill="#f7faff" d="M53,55l-.667,4H55l.49.06.45-3.57A8.1,8.1,0,0,0,56,54.5V53a17.068,17.068,0,0,1-3-.614Z"/><path fill="#f7faff" d="M54.95,38.92a3.72,3.72,0,0,1-1.45.02c-.167-.022-.334-.05-.5-.082V42.4A14.506,14.506,0,0,1,56,44V38.11A1.474,1.474,0,0,1,54.95,38.92Z"/><path fill="#f7faff" d="M7.31,48.34a1.091,1.091,0,0,1-.3-.79.981.981,0,0,1,.21-.42,10.966,10.966,0,0,0,.847-1.186L8,45V39.179c-.656.3-1.329.539-2,.821v4.17c0,.55.02,1.11.05,1.66L6.78,59H9l-.668-9.348C7.985,49.221,7.638,48.79,7.31,48.34Z"/><path fill="#23272b" d="M7,35h3.981c0-.047.016-.093.019-.14C11.07,33.54,10,32,9,31H7a5.254,5.254,0,0,1-.98-.09L6,31v3.9l.02.006A5.254,5.254,0,0,0,7,35Z"/><path fill="#23272b" d="M34.9,25.98A6.173,6.173,0,0,1,29,31H26.26v.05A6.651,6.651,0,0,0,26.341,35H29a6.173,6.173,0,0,0,5.9-5.02h.01A5.333,5.333,0,0,0,35,29V26l-.09-.02Z"/><path fill="#cdd2e1" d="M18,31H9c1,1,2.07,2.54,2,3.86,0,.047-.015.093-.019.14H14A4,4,0,0,1,18,31Z"/><path fill="#cdd2e1" d="M26.26,31.05V31H18a3.995,3.995,0,0,1,4,4h4.341A6.651,6.651,0,0,1,26.26,31.05Z"/><ellipse cx="20.258" cy="33.814" fill="#f6fafd" rx=".825" ry="1.148" transform="rotate(-45.02 20.257 33.814)"/><ellipse cx="51.258" cy="32.814" fill="#f6fafd" rx=".825" ry="1.148" transform="rotate(-45.02 51.257 32.813)"/><ellipse cx="32.004" cy="10.314" fill="#f6fafd" rx=".413" ry=".574" transform="rotate(-45.02 32.003 10.314)"/><ellipse cx="49.26" cy="28.8" fill="#f6fafd" rx="1.642" ry="2.286" transform="rotate(-45.02 49.26 28.8)"/></g></svg>