<svg xmlns="http://www.w3.org/2000/svg" viewBox="0 0 428.387 310.244"><defs><style>.cls-1,.cls-3{fill:#eb7d7d;}.cls-2{fill:#fff;}.cls-3,.cls-5,.cls-6{opacity:0.25;}.cls-4,.cls-6{fill:#070707;}.cls-7{fill:#8ac13a;}.cls-8{fill:#ffd772;}.cls-9{fill:#1d65ce;}</style></defs><g id="Layer_2" data-name="Layer 2"><g id="Layer_2-2" data-name="Layer 2"><path class="cls-1" d="M287.71,189.4c4.76-2.073,21.3,11.991,21.451,13.846s-3.4,5.254-2.628,8.654,4.482,4.018,5.409,0,5.873-4.327,3.555.464,5.255,7.418,5.873,3.245.773-12.363,3.4-11.282,6.182,2.628,3.709,6.8-1.41,8.133,1.893,8.133,3.188-4.868,2.55-6.606.638-2.261.638-2.261,3.535,2.492,3.535,5.622-.116,8.4,3.072,7.824,2.9-3.767,1.738-5.738.638-5.042,3.767-7.244,8.872-5.837,9.188-8.743-5.247-39.128-22.17-44.576S287.587,181.854,287.71,189.4Z"/><path class="cls-1" d="M58.729,19.559,42.684,18.448s5.261-9.273,6.007-15.541A1.43,1.43,0,0,0,46.6,1.478c-4.39,2.3-14.324,8.742-17.1,21.108a6.592,6.592,0,0,0,5.361,7.923c6.1,1.019,15.469,2.158,21.727.921Z"/><path class="cls-1" d="M103.3,18.747l16.045-1.111S114.08,8.364,113.334,2.1a1.43,1.43,0,0,1,2.09-1.429c4.389,2.3,14.324,8.743,17.1,21.108a6.591,6.591,0,0,1-5.361,7.924c-6.1,1.019-15.468,2.157-21.727.92Z"/><path class="cls-2" d="M153.842,45.455,256.306,48.7l94.568-9.536c19.261-1.942,38.549,5.337,50.986,20.171a55.193,55.193,0,0,1,11.156,21.551c9.273,35.042,6.027,76.306,6.027,76.306s10.664,11.359,8.577,35.932-12.286,48.5-12.286,48.5.232-27.176-4.405-41.085,2.782-41.959,2.782-41.959,7.187-48.451-10.9-85.078l-16.048,80.239a31.325,31.325,0,0,0,2.4,19.545l8.962,18.932a21.657,21.657,0,0,1,1.964,11.522l-7.481,71.445s4.868,11.359,4.4,19.7H365.029a53.964,53.964,0,0,1,4.637-10.9c3.245-5.8,6.259-8.114,6.259-8.114L375,238.1s-9.272,33.382-10.2,40.1-2.086,16.691-2.086,16.691H330.72s4.636-9.814,12.286-15.455,14.837-63.553,13.909-69.486-12.054-41.015-21.327-48.124-31.334,8.655-44.722,24.728-78.915,13.6-78.915,13.6-8.036,38.327-8.036,44.509.463,31.527.463,31.527,2.628,12.982-.463,18.7H173.623a55.88,55.88,0,0,1,6.491-10.355c3.555-4.173,6.182-8.964,6.491-13.291s-5.409-37.709-5.409-37.709-9.118,37.709-8.809,44.2-.154,17.155-.154,17.155H140.705a40.388,40.388,0,0,1,7.882-11.282c5.1-4.946,7.264-10.355,7.264-13.755s0-62.282-.619-65.682-1.545-7.109-1.545-7.109-27.046-5.719-39.718-19.937A70.964,70.964,0,0,1,98.208,146.4l5.251-100.793Z"/><path class="cls-3" d="M324.77,151.01c-8.528,1.236-34.436,24.109-47.727,27.2-11.056,2.571-57.94-5.124-73.393-7.785a4.537,4.537,0,0,0-5.285,3.967c-.544,4.872-2.007,12.42-5.936,17.8-4.123,5.651-11.233,41.342-11.233,41.342s5.718,33.382,5.409,37.709-2.936,9.118-6.491,13.291a55.88,55.88,0,0,0-6.491,10.355h30.292c3.091-5.719.463-18.7.463-18.7s-.463-25.345-.463-31.527,8.036-44.509,8.036-44.509,65.528,2.472,78.915-13.6,35.449-31.837,44.722-24.728,20.4,42.191,21.328,48.124-6.26,63.845-13.91,69.486-12.286,15.455-12.286,15.455h31.991s1.159-9.969,2.086-16.692S375,238.1,375,238.1s-.59-14.45-1.826-19.4S333.3,149.773,324.77,151.01Z"/><path class="cls-4" d="M207.806,47.155C204.1,63.228,192.043,65.7,202.243,76.828s37.091,17.386,42.036,31.875-7.109,30.87-24.418,25.616-18.237-27.2-36.164-22.564-12.364,19.164-15.455,27.2-9.581,11.4-20.709,5.081-22.254.792-24.109,12.847-14.482,13.829-14.482,13.829A76.128,76.128,0,0,1,98.208,146.4c-6.22-25.192,17.875-100.1,17.875-100.1S172.261,44.682,207.806,47.155Z"/><path class="cls-2" d="M133.534,31.289a26.806,26.806,0,0,0-17.553,6.949L110.62,24.772a11.706,11.706,0,0,0-8.247-7.081,163.452,163.452,0,0,0-19.7-3.3,163.369,163.369,0,0,0-19.724,3.152,11.7,11.7,0,0,0-8.3,7.019L49.186,37.986a26.808,26.808,0,0,0-17.5-7.08C20.528,30.494-1.474,41.49.642,42.089S15.6,59.5,23.417,62.849s24.4-4.207,24.4-4.207l-.764,9.392a34.616,34.616,0,0,0,1.62,13.624l9.348,28.423a14.864,14.864,0,0,1-.333,10.2l-2.946,7.309a13.8,13.8,0,0,0-.354,9.739,13.423,13.423,0,0,0,11.752,8.954l.75.23a52.791,52.791,0,0,0,31.314-.11h0a13.422,13.422,0,0,0,11.819-8.865,13.8,13.8,0,0,0-.28-9.74l-2.891-7.332a14.861,14.861,0,0,1-.257-10.2l9.563-28.352A34.637,34.637,0,0,0,117.884,68.3l-.694-9.4s16.534,7.684,24.372,4.391,20.81-20.006,22.931-20.588S144.7,30.961,133.534,31.289Z"/><path class="cls-3" d="M104.182,63.707s-5.114,14.048-7,25.484,1.36,22.873,3.06,18.237,2.22-15.764,8.3-23.955,6.668-15.733,4.826-19.766S105.505,59.861,104.182,63.707Z"/><path class="cls-3" d="M64.425,64.714s5.114,14.049,7,25.485-1.36,22.873-3.06,18.237-2.22-15.764-8.3-23.955S53.4,68.748,55.241,64.714,63.1,60.869,64.425,64.714Z"/><g class="cls-5"><path class="cls-1" d="M.861,42.718c-.12-.168-.187-.264-.187-.264A.946.946,0,0,0,.861,42.718Z"/><path class="cls-1" d="M49.186,37.986l-2.266-1.9s1.472,5.887-2.237,8.978a9.8,9.8,0,0,1-8.367,1.749c-6.381-5.9-13.2-12.771-21.461-5.69C9.236,45.943,4.238,43.976,2.437,43.52c4.332,4.238,14.425,16.518,20.98,19.329,7.813,3.352,24.4-4.207,24.4-4.207l-.018.227c.1-.127.174-.217.174-.217a18.767,18.767,0,0,1,.26-5.625Z"/></g><g class="cls-5"><path class="cls-1" d="M164.306,42.718c.12-.168.187-.264.187-.264A.946.946,0,0,1,164.306,42.718Z"/><path class="cls-1" d="M115.981,37.986l2.266-1.9s-1.472,5.887,2.238,8.978a9.8,9.8,0,0,0,8.366,1.749c6.381-5.9,13.2-12.771,21.461-5.69,5.619,4.816,10.617,2.849,12.418,2.393-4.332,4.238-14.425,16.518-20.98,19.329-7.813,3.352-24.4-4.207-24.4-4.207l.018.227c-.1-.127-.174-.217-.174-.217a18.767,18.767,0,0,0-.26-5.625Z"/></g><path class="cls-4" d="M82.377,149.343a53.246,53.246,0,0,1-15.629-2.353l-.7-.214A13.948,13.948,0,0,1,53.921,137.5a14.261,14.261,0,0,1,.361-10.092l2.946-7.309a14.391,14.391,0,0,0,.322-9.857L48.2,81.814a34.934,34.934,0,0,1-1.643-13.821l.7-8.556C43.837,60.9,30.262,66.329,23.22,63.31c-5.056-2.169-12.015-9.689-17.1-15.179C3.675,45.485,1.144,42.75.506,42.57a.643.643,0,0,1-.5-.729c.213-1.351,7.484-4.771,12.017-6.609,4.688-1.9,13.476-5.046,19.68-4.827A27.591,27.591,0,0,1,49,37.115l5.184-12.742a12.215,12.215,0,0,1,8.655-7.318,164.167,164.167,0,0,1,19.786-3.162A163.1,163.1,0,0,1,102.485,17.2a12.208,12.208,0,0,1,8.6,7.384l5.089,12.781a27.584,27.584,0,0,1,17.347-6.58c6.185-.178,14.968,3.038,19.642,4.975,4.519,1.872,11.764,5.345,11.967,6.7a.643.643,0,0,1-.5.725c-.639.175-3.191,2.892-5.66,5.519-5.122,5.451-12.137,12.918-17.209,15.048-7.066,2.969-20.6-2.561-24-4.053l.631,8.562a34.925,34.925,0,0,1-1.747,13.808l-9.562,28.352a14.376,14.376,0,0,0,.248,9.857l2.891,7.332a14.27,14.27,0,0,1,.285,10.095A13.948,13.948,0,0,1,98.3,146.9,53.237,53.237,0,0,1,82.377,149.343Zm-34.556-91.2a.5.5,0,0,1,.5.541l-.764,9.392a33.924,33.924,0,0,0,1.6,13.427L58.5,109.925a15.382,15.382,0,0,1-.345,10.542l-2.945,7.309a13.261,13.261,0,0,0-.346,9.385,12.946,12.946,0,0,0,11.314,8.621.491.491,0,0,1,.113.022l.75.23a52.092,52.092,0,0,0,31.017-.108.447.447,0,0,1,.12-.023,12.949,12.949,0,0,0,11.379-8.537,13.265,13.265,0,0,0-.276-9.386l-2.89-7.332a15.381,15.381,0,0,1-.265-10.545l9.562-28.351a33.968,33.968,0,0,0,1.7-13.414l-.693-9.4a.5.5,0,0,1,.709-.49c.164.076,16.426,7.549,23.968,4.383,4.876-2.048,11.807-9.425,16.867-14.811,3.016-3.21,4.719-5,5.694-5.6-2.321-2.032-20.226-10.953-30.381-10.636a26.552,26.552,0,0,0-17.209,6.8.5.5,0,0,1-.823-.163l-5.362-13.466a11.212,11.212,0,0,0-7.894-6.778,163.542,163.542,0,0,0-19.639-3.291,164.469,164.469,0,0,0-19.564,3.143,11.214,11.214,0,0,0-7.947,6.719L49.649,38.175a.5.5,0,0,1-.824.156,26.563,26.563,0,0,0-17.157-6.926C21.5,31.037,3.545,39.8,1.208,41.812c.969.605,2.658,2.408,5.649,5.64,5.021,5.424,11.9,12.853,16.757,14.938,7.521,3.229,23.836-4.128,24-4.2A.486.486,0,0,1,47.821,58.142ZM164.158,42.677h0Z"/><path class="cls-4" d="M65.083,66.782S64,60.832,59.905,59.518,54.11,65.7,54.342,66.4,61.915,68.946,65.083,66.782Z"/><path class="cls-4" d="M103.158,66.782s1.081-5.95,5.177-7.264,5.8,6.182,5.564,6.878S106.326,68.946,103.158,66.782Z"/><path class="cls-4" d="M60.761,68.3a18.852,18.852,0,0,1-5.494-.849c-1.09-.367-1.317-.647-1.4-.894-.235-.7.634-4.595,2.526-6.51a3.439,3.439,0,0,1,3.664-1c4.332,1.39,5.47,7.395,5.516,7.65a.5.5,0,0,1-.21.5A8.317,8.317,0,0,1,60.761,68.3Zm-5.943-2.118c.858.574,6.834,1.96,9.7.365-.293-1.227-1.538-5.515-4.766-6.549a2.358,2.358,0,0,0-2.4.523C55.624,61.994,54.811,65.407,54.818,66.179Z"/><path class="cls-4" d="M107.48,68.3a8.32,8.32,0,0,1-4.6-1.1.5.5,0,0,1-.21-.5c.046-.255,1.185-6.26,5.516-7.65a3.443,3.443,0,0,1,3.665,1c1.892,1.915,2.76,5.807,2.526,6.51-.082.247-.308.526-1.4.893A18.832,18.832,0,0,1,107.48,68.3Zm-3.758-1.754c2.875,1.6,8.873.2,9.707-.37.016-.7-.8-4.166-2.539-5.656a2.36,2.36,0,0,0-2.4-.523C105.26,61.029,104.016,65.317,103.722,66.544Zm9.763-.414h0Z"/><path class="cls-1" d="M80.924,144.036c-3.593-.232-16.807-6.781-19.3-11.939s1.217-9.794,8.287-11.823,20.98-1.622,26.138-1.043a7.26,7.26,0,0,1,5.042,11.359C97.962,135.517,90.428,143.862,80.924,144.036Z"/><path class="cls-4" d="M80.924,144.536h-.032c-3.569-.23-17.1-6.8-19.718-12.22a7.136,7.136,0,0,1-.224-6.177c1.262-2.821,4.4-5.074,8.824-6.344,7.028-2.017,20.838-1.678,26.332-1.06a7.552,7.552,0,0,1,6,4.273,7.977,7.977,0,0,1-.589,7.852c-3.944,6.207-11.7,13.515-20.581,13.677Zm4.714-25.283c-5.539,0-11.657.374-15.588,1.5C65.91,121.942,63,124,61.863,126.546a6.087,6.087,0,0,0,.212,5.334c2.434,5.037,15.5,11.416,18.861,11.656,8.475-.167,15.926-7.22,19.734-13.214a6.992,6.992,0,0,0,.531-6.883,6.556,6.556,0,0,0-5.207-3.711A101.727,101.727,0,0,0,85.638,119.253Z"/><path class="cls-4" d="M290.05,111.65c-3.649-3.3-8.058-2.417-9.034,3.483s3.2,8.062-1.107,13.223-7.8,9.925-2.816,13.8,8.2,1.266,12.128-3.211,12.755-.063,15.888-2.885,6.266-7.282,2.383-11.746S294.238,116.708,290.05,111.65Z"/><path class="cls-4" d="M85.433,23.613C81.783,20.318,77.375,21.2,76.4,27.1s3.2,8.063-1.107,13.223-7.8,9.925-2.817,13.8,8.2,1.266,12.128-3.211,12.756-.063,15.888-2.885,6.266-7.281,2.383-11.746S89.621,28.671,85.433,23.613Z"/><path class="cls-4" d="M282.286,46.142s2.794,12.758,17.321,12.6,17.618-3.246,25.655,4.172,6.181,21.482,2.318,37.555,14.836,31.682,23.491,27.509S357.407,110.055,361.116,98s19.937-10.663,21.328-17.309-13.137-19.473-18.391-24.882-1.391-7.882,2.627-9.5,3.453-6.016,3.453-6.016S358.644,34.1,282.286,46.142Z"/><path class="cls-4" d="M397.021,295.393H365.029a.5.5,0,0,1-.482-.632,55.006,55.006,0,0,1,4.682-11.008,29.976,29.976,0,0,1,6.19-8.1l-.839-34.161c-2.35,8.567-8.547,31.407-9.288,36.779-.915,6.641-2.073,16.581-2.084,16.68a.5.5,0,0,1-.5.443H330.72a.5.5,0,0,1-.452-.714c.047-.1,4.779-9.992,12.441-15.644,7.512-5.538,14.493-64.009,13.712-69.006a61.723,61.723,0,0,0-1.607-6.324c-1.371,2.389-4.977,4.879-7.743,6.79-.4.273-.769.531-1.111.773-3.022,2.127-4.58,4.956-3.624,6.581a5.332,5.332,0,0,1,.556,4.618,3.348,3.348,0,0,1-2.636,1.865,2.4,2.4,0,0,1-2.062-.482c-1.607-1.344-1.6-4.911-1.6-7.515v-.319c0-2.352-2.276-4.381-3.061-5.011-.214.2-.452.635-.142,1.477.442,1.207.752,4.2-.494,5.987a2.959,2.959,0,0,1-2.526,1.293,3.477,3.477,0,0,1-3.162-1.769c-1.022-1.794-.7-4.522.839-7.12a3.718,3.718,0,0,0,.643-3.071c-.51-1.529-2.592-2.386-4.113-3.012a.5.5,0,0,0-.5.008c-1.108.662-1.548,4.854-1.869,7.916-.113,1.083-.221,2.11-.349,2.97a2.734,2.734,0,0,1-2.01,2.381,4.469,4.469,0,0,1-4.4-1.5,3.951,3.951,0,0,1-.408-4.421c.86-1.777.513-2.438.385-2.6a.79.79,0,0,0-.807-.185,3.378,3.378,0,0,0-2.195,2.651c-.54,2.339-1.959,3.173-3.109,3.173h0c-1.525,0-2.84-1.278-3.271-3.175-.506-2.224.659-4.394,1.6-6.137a6.353,6.353,0,0,0,1.02-2.586c-.244-1.155-8.487-8.636-15.082-12.038-3.289-1.695-4.872-1.714-5.627-1.409-7.679,5.394-22.8,8.853-44.952,10.281-14.91.962-28.146.624-30.646.546-.866,4.152-7.94,38.278-7.94,44,0,6.106.458,31.265.463,31.519.1.447,2.617,13.136-.523,18.946a.5.5,0,0,1-.44.263H173.624a.5.5,0,0,1-.452-.715,55.582,55.582,0,0,1,6.562-10.464c3.832-4.5,6.095-9.116,6.373-13,.253-3.544-3.692-27.424-4.994-35.171-1.989,8.385-8.484,36.269-8.226,41.674.306,6.438-.15,17.093-.155,17.2a.5.5,0,0,1-.5.479H140.705a.5.5,0,0,1-.458-.7,40.491,40.491,0,0,1,7.992-11.44c5.249-5.09,7.112-10.4,7.112-13.395,0-6.37-.017-62.331-.61-65.592-.508-2.793-1.234-5.831-1.466-6.779-3.046-.694-27.774-6.667-39.679-20.024a66.024,66.024,0,0,1-5.031-6.421.307.307,0,0,1-.028-.035c-.021-.029-.528-.731-1.33-2.009a72.727,72.727,0,0,1-9.374-21.954,53.072,53.072,0,0,1-31.085-.053l-.7-.213a13.95,13.95,0,0,1-12.131-9.28,14.264,14.264,0,0,1,.361-10.093l2.946-7.309a14.391,14.391,0,0,0,.322-9.857L48.2,81.814a34.951,34.951,0,0,1-1.642-13.82l.7-8.557C43.837,60.9,30.262,66.329,23.22,63.31c-5.056-2.169-12.015-9.689-17.1-15.179C3.675,45.485,1.144,42.75.506,42.57a.643.643,0,0,1-.5-.729c.3-1.92,21.246-11.8,31.7-11.436q.684.027,1.346.08a7.085,7.085,0,0,1-4.036-8C31.844,9.843,42.1,3.271,46.37,1.033a1.941,1.941,0,0,1,2,.12,1.9,1.9,0,0,1,.817,1.811C48.549,8.337,44.739,15.717,43.5,18l14.932,1.032a12.1,12.1,0,0,1,4.408-1.981,164.111,164.111,0,0,1,19.785-3.162A163.1,163.1,0,0,1,102.485,17.2a12.144,12.144,0,0,1,2.59.919l13.449-.931c-1.238-2.287-5.048-9.667-5.687-15.04a1.9,1.9,0,0,1,.818-1.81,1.938,1.938,0,0,1,2-.12c4.275,2.238,14.524,8.808,17.355,21.45a7.086,7.086,0,0,1-5.762,8.518,105.176,105.176,0,0,1-13.361,1.434l2.287,5.745a27.584,27.584,0,0,1,17.347-6.58c10.469-.342,31.32,9.75,31.609,11.674a.643.643,0,0,1-.5.725,10.587,10.587,0,0,0-2.337,2.034l2.8.089c17.154.113,31.544.565,42.756,1.344a.407.407,0,0,1,.079.013l48.4,1.532,27.034-2.729c74.619-11.7,86.543-5.876,87.015-5.622l.014.007a57.512,57.512,0,0,1,31.858,19.158A55.816,55.816,0,0,1,413.5,80.759c8.848,33.437,6.288,73.01,6.058,76.261,1.3,1.523,10.508,13.232,8.561,36.146-2.068,24.37-12.221,48.417-12.324,48.657a.5.5,0,0,1-.96-.2c0-.271.178-27.253-4.379-40.923-4.631-13.891,2.468-41.094,2.773-42.245.059-.423,6.773-47.485-10.214-83.392l-15.756,78.779a31.03,31.03,0,0,0,2.366,19.233l8.961,18.932A22.165,22.165,0,0,1,400.6,203.8l-7.469,71.316c.55,1.31,4.838,11.807,4.394,19.809A.5.5,0,0,1,397.021,295.393Zm-31.321-1h30.842c.249-8.086-4.339-18.9-4.387-19.008a.506.506,0,0,1-.037-.249l7.483-71.445a21.167,21.167,0,0,0-1.92-11.256L388.72,173.5a32.039,32.039,0,0,1-2.443-19.857l16.048-80.239a.5.5,0,0,1,.425-.4.5.5,0,0,1,.514.274c17.943,36.348,11.013,84.887,10.941,85.373-.085.334-7.337,28.12-2.8,41.728,3.772,11.318,4.339,31.557,4.419,38.682,2.576-6.631,9.62-26.208,11.3-45.984,1.633-19.231-4.809-31.662-8.444-35.549a.5.5,0,0,1-.133-.381c.032-.412,3.131-41.584-6.013-76.137a54.822,54.822,0,0,0-11.055-21.359A56.533,56.533,0,0,0,370.027,40.8a.5.5,0,0,1-.231-.122c-4.3-2.041-27.65-3.412-86.315,5.782L256.356,49.2l-48.568-1.533a.57.57,0,0,1-.117-.018c-11.177-.774-25.51-1.223-42.606-1.335l-3.944-.125a.5.5,0,0,1-.345-.847,20.893,20.893,0,0,1,3.154-2.914c-2.321-2.032-20.226-10.953-30.381-10.636a26.552,26.552,0,0,0-17.209,6.8.5.5,0,0,1-.823-.163l-2.825-7.1a.5.5,0,0,1,.454-.684,102.017,102.017,0,0,0,13.936-1.44,6.057,6.057,0,0,0,4.062-2.614,6,6,0,0,0,.889-4.7C129.294,9.657,119.342,3.281,115.19,1.108a.923.923,0,0,0-.968.057.91.91,0,0,0-.392.87c.725,6.094,5.893,15.263,5.945,15.355a.5.5,0,0,1-.4.746l-14.365.994a.462.462,0,0,1-.258-.052,11.222,11.222,0,0,0-2.491-.9,163.542,163.542,0,0,0-19.639-3.291,164.469,164.469,0,0,0-19.564,3.143,11.124,11.124,0,0,0-4.183,1.92.479.479,0,0,1-.331.1l-15.895-1.1a.5.5,0,0,1-.4-.746c.052-.092,5.221-9.261,5.945-15.355a.907.907,0,0,0-.391-.869.923.923,0,0,0-.969-.057C42.682,4.093,32.729,10.47,29.99,22.706a5.989,5.989,0,0,0,.889,4.7,6.059,6.059,0,0,0,4.063,2.614A90.447,90.447,0,0,0,51.63,31.441a.519.519,0,0,1,.426.214.5.5,0,0,1,.053.475l-2.46,6.045a.5.5,0,0,1-.824.156,26.563,26.563,0,0,0-17.157-6.926C21.518,31.026,3.544,39.8,1.208,41.812c.969.605,2.658,2.408,5.649,5.64,5.021,5.424,11.9,12.853,16.757,14.938,7.519,3.225,23.836-4.129,24-4.2a.5.5,0,0,1,.706.5l-.764,9.392a33.946,33.946,0,0,0,1.6,13.427L58.5,109.925a15.387,15.387,0,0,1-.344,10.542l-2.946,7.309a13.264,13.264,0,0,0-.346,9.386,12.945,12.945,0,0,0,11.314,8.62.491.491,0,0,1,.113.022l.75.23a52.092,52.092,0,0,0,31.017-.108.5.5,0,0,1,.641.385,70.38,70.38,0,0,0,9.353,22.15c.678,1.081,1.148,1.751,1.266,1.917a.383.383,0,0,1,.039.051,64.942,64.942,0,0,0,4.985,6.366c12.416,13.931,39.18,19.724,39.449,19.78a.5.5,0,0,1,.381.368c.009.037.938,3.764,1.553,7.141.595,3.279.626,55.364.626,65.772,0,3.194-1.942,8.806-7.416,14.114a40.087,40.087,0,0,0-7.439,10.423h30.256c.085-2.146.4-11.015.136-16.631-.309-6.489,8.449-42.8,8.823-44.341a.488.488,0,0,1,.5-.383.5.5,0,0,1,.476.416c.234,1.365,5.725,33.491,5.415,37.829-.292,4.1-2.64,8.919-6.609,13.579a53.384,53.384,0,0,0-6.066,9.531H203.61c2.757-5.627.3-17.975.278-18.1-.014-.344-.473-25.512-.473-31.627,0-6.163,7.718-43.045,8.047-44.612a.551.551,0,0,1,.508-.4c.573.024,57.5,2.015,75.452-10.663a.484.484,0,0,1,.089-.05c1.641-.715,4.484.125,8.454,2.5,5.752,3.437,13.558,10.146,13.693,11.768a6.534,6.534,0,0,1-1.135,3.143c-.9,1.679-1.924,3.583-1.5,5.442.32,1.409,1.265,2.4,2.3,2.4h0c.99,0,1.786-.9,2.133-2.4a4.336,4.336,0,0,1,2.949-3.4,1.722,1.722,0,0,1,1.811.538c.426.536.725,1.605-.268,3.656a2.953,2.953,0,0,0,.275,3.343,3.471,3.471,0,0,0,3.36,1.178,1.766,1.766,0,0,0,1.294-1.566c.125-.847.231-1.86.343-2.928.475-4.539.923-7.817,2.351-8.67a1.506,1.506,0,0,1,1.39-.073c1.7.7,4.025,1.657,4.681,3.619a4.689,4.689,0,0,1-.733,3.9c-1.336,2.255-1.661,4.655-.829,6.115a2.485,2.485,0,0,0,2.293,1.264,1.944,1.944,0,0,0,1.7-.867c.976-1.4.767-4,.375-5.069a2.106,2.106,0,0,1,.918-2.894.5.5,0,0,1,.478.054c.153.108,3.747,2.68,3.747,6.03v.32c0,2.27-.007,5.7,1.241,6.746a1.42,1.42,0,0,0,1.24.266,2.4,2.4,0,0,0,1.906-1.3,4.361,4.361,0,0,0-.507-3.694c-1.263-2.146.344-5.4,3.909-7.907.345-.242.722-.5,1.119-.776,3.026-2.091,7.6-5.251,7.86-7.611a.5.5,0,0,1,.976-.09,72.607,72.607,0,0,1,2.07,7.9c.809,5.169-6.1,64.061-14.106,69.965-6.279,4.63-10.547,12.207-11.771,14.553h30.734c.236-2.008,1.229-10.41,2.036-16.26.922-6.679,9.835-38.806,10.214-40.17a.5.5,0,0,1,.981.121l.928,37.787a.5.5,0,0,1-.194.408c-.031.024-2.982,2.342-6.129,7.962A55.68,55.68,0,0,0,365.7,294.393ZM39.136,31.654A26.635,26.635,0,0,1,49,37.115L50.9,32.46A81.825,81.825,0,0,1,39.136,31.654Z"/><path class="cls-4" d="M123.811,20.223a.5.5,0,0,1-.4-.2c-1.235-1.646-4.079-1.884-4.108-1.886a.5.5,0,0,1,.076-1c.135.01,3.323.272,4.832,2.285a.5.5,0,0,1-.4.8Z"/><path class="cls-4" d="M38.037,21.15a.5.5,0,0,1-.382-.822,7.054,7.054,0,0,1,5.029-2.38h0a.5.5,0,0,1,0,1,6.134,6.134,0,0,0-4.266,2.025A.5.5,0,0,1,38.037,21.15Z"/><path class="cls-4" d="M53.022,29.061h-.008c-.073,0-7.345-.115-12.265-.807a.5.5,0,1,1,.14-.99c4.857.683,12.068.8,12.14.8a.5.5,0,0,1-.007,1Z"/><path class="cls-4" d="M114.607,28.739c-1.47,0-2.557-.072-2.673-.08a.5.5,0,1,1,.069-1c.075.006,7.465.495,10.079-1.1a.5.5,0,1,1,.521.853C120.781,28.526,117.129,28.739,114.607,28.739Z"/><path class="cls-4" d="M68.251,80.419a.5.5,0,0,1-.5-.444,59.1,59.1,0,0,0-3.138-13.012.5.5,0,0,1,.933-.361,60.235,60.235,0,0,1,3.2,13.261.5.5,0,0,1-.442.553A.507.507,0,0,1,68.251,80.419Z"/><path class="cls-4" d="M99.006,82.111a.622.622,0,0,1-.105-.01.5.5,0,0,1-.384-.594c1.381-6.449,4.138-14.8,4.166-14.882a.5.5,0,0,1,.949.314c-.027.083-2.768,8.382-4.138,14.777A.5.5,0,0,1,99.006,82.111Z"/><path class="cls-4" d="M77.214,136.364a.526.526,0,0,1-.14-.02c-4.545-1.332-10.194-3.905-11.158-6.771a2.355,2.355,0,0,1,.349-2.235c1.3-1.759,4.126-.029,7.4,1.971,2.683,1.639,5.729,3.493,7.913,3.372,4.452-.255,6.3-2.4,7.938-4.284,1.388-1.6,2.673-3.094,5.247-3.08,1.94.03,2.18,1.166,2.194,1.655.083,3.059-6.944,9.115-10.9,9.391a.494.494,0,0,1-.534-.464.5.5,0,0,1,.464-.534c3.6-.251,10.03-6.078,9.968-8.366,0-.182-.018-.664-1.209-.682-2.124-.009-3.139,1.19-4.476,2.735-1.676,1.937-3.762,4.347-8.637,4.627-2.52.136-5.684-1.8-8.492-3.517-2.615-1.6-5.318-3.25-6.074-2.23a1.359,1.359,0,0,0-.2,1.322c.671,2,4.985,4.516,10.491,6.131a.5.5,0,0,1-.141.979Z"/><path class="cls-6" d="M77.215,135.864c-6.723-1.97-12.519-5.563-10.548-8.229s10.045,5.826,14.939,5.545c8.436-.484,7.972-7.441,13.15-7.363,5.525.084-3.748,9.7-8.732,10.047l-.416.175a10.308,10.308,0,0,1-8-.009Z"/><path class="cls-4" d="M47.821,59.142a.5.5,0,0,1-.5-.5c-.029-6.774,1.354-20.569,1.368-20.707a.5.5,0,1,1,.995.1c-.014.139-1.391,13.882-1.363,20.6a.5.5,0,0,1-.5.5Z"/><path class="cls-4" d="M117.19,59.4a.5.5,0,0,1-.5-.463c-.459-6.216-1.2-20.532-1.211-20.675a.5.5,0,0,1,1-.053c.007.144.75,14.448,1.208,20.654a.5.5,0,0,1-.462.536Z"/><path class="cls-4" d="M46.884,54.027c-3.287,0-7.545-2.872-12.163-8.246-1.821-2.12-6.653-7.079-12.163-7.333A9.708,9.708,0,0,0,15.2,41.486a.5.5,0,0,1-.7-.718,10.752,10.752,0,0,1,8.1-3.319c5.9.273,10.97,5.462,12.876,7.68,4.877,5.677,9.387,8.515,12.377,7.786a.5.5,0,1,1,.238.971A5.115,5.115,0,0,1,46.884,54.027Z"/><path class="cls-4" d="M118.246,54.944a5.1,5.1,0,0,1-1.209-.141.5.5,0,1,1,.236-.971c2.989.728,7.5-2.109,12.378-7.787,1.906-2.218,6.976-7.407,12.876-7.679a10.653,10.653,0,0,1,8.1,3.319.5.5,0,1,1-.7.718,9.719,9.719,0,0,0-7.355-3.038c-5.51.254-10.342,5.212-12.163,7.332C125.793,52.071,121.534,54.943,118.246,54.944Z"/><path class="cls-4" d="M181.2,234.038a.52.52,0,0,1-.1-.009.5.5,0,0,1-.4-.587c.279-1.436,6.9-35.258,11.314-41.534,4.287-6.092,6.155-18.21,6.173-18.331a.5.5,0,0,1,.99.149c-.077.506-1.924,12.475-6.346,18.758-4.292,6.1-11.082,40.8-11.15,41.15A.5.5,0,0,1,181.2,234.038Z"/><path class="cls-4" d="M153.687,197.564a.5.5,0,0,1-.325-.12,66.617,66.617,0,0,1-13.067-16.133.5.5,0,1,1,.876-.483,65.545,65.545,0,0,0,12.841,15.857.5.5,0,0,1-.325.879Z"/><path class="cls-4" d="M354.86,202.617a.5.5,0,0,1-.481-.365c-1.6-5.7-11.709-29.732-16.765-37.707a8.727,8.727,0,0,0-6.385-4.076c-6.107-.89-14.952,3.074-23.645,10.621a232.654,232.654,0,0,0-19.5,18.643.5.5,0,1,1-.748-.664,233.7,233.7,0,0,1,19.592-18.735c9.045-7.851,17.963-11.8,24.446-10.855a9.689,9.689,0,0,1,7.084,4.531c5.093,8.031,15.273,32.228,16.884,37.972a.5.5,0,0,1-.347.617A.528.528,0,0,1,354.86,202.617Z"/><path class="cls-4" d="M324.77,204.828a.489.489,0,0,1-.176-.032,38.987,38.987,0,0,1-8.833-5.033c-5.975-4.5-9.6-10.062-10.467-16.072a.5.5,0,0,1,.423-.567.511.511,0,0,1,.567.423c2.019,13.908,18.5,20.251,18.661,20.313a.5.5,0,0,1-.175.968Z"/><path class="cls-4" d="M336.378,197.472c-4.094,0-8.948-1.369-14.423-5.334a.5.5,0,0,1,.586-.811c16.777,12.154,27.069-.7,27.5-1.253a.5.5,0,0,1,.791.613A19.606,19.606,0,0,1,336.378,197.472Z"/><circle class="cls-2" cx="57.278" cy="62.571" r="0.811"/><circle class="cls-2" cx="107.727" cy="63.382" r="0.811"/><path class="cls-4" d="M147.062,285.2a8.78,8.78,0,0,1,6.73,4.2l18.649-1.389-.208,6.876H140.705A40.26,40.26,0,0,1,147.062,285.2Z"/><path class="cls-4" d="M179.335,285.5a17.215,17.215,0,0,1,6.835,4.549l19.147-.809s-.5,4.032-1.4,5.655H173.623S176.131,289.008,179.335,285.5Z"/><path class="cls-4" d="M369.666,284c2.607-4.587,8.1,5.68,8.1,5.68l18.882-.636s.38,4.576.369,5.852H365.029S368.061,286.629,369.666,284Z"/><path class="cls-4" d="M337.534,284.606c3.433.376,4.129,5.708,4.129,5.708l21.559-.29-.511,4.869H330.72S333.7,287.186,337.534,284.606Z"/><path class="cls-4" d="M375,238.6a.5.5,0,0,1-.5-.467l-1.354-20.508c-1.822-2.951-39.864-64.4-53.256-73.168a.5.5,0,1,1,.547-.836c13.839,9.056,52.007,70.954,53.626,73.585a.5.5,0,0,1,.073.229l1.362,20.631a.5.5,0,0,1-.466.533Z"/><rect class="cls-1" x="173.623" y="247.462" width="86.649" height="6.167"/><polygon class="cls-1" points="186.642 253.629 181.49 253.629 175.751 306.627 180.902 306.627 186.642 253.629"/><polygon class="cls-1" points="247.628 253.629 252.779 253.629 258.519 306.627 253.367 306.627 247.628 253.629"/><path class="cls-4" d="M260.273,254.129H173.624a.5.5,0,0,1-.5-.5v-6.167a.5.5,0,0,1,.5-.5h86.649a.5.5,0,0,1,.5.5v6.167A.5.5,0,0,1,260.273,254.129Zm-86.149-1h85.649v-5.167H174.124Z"/><path class="cls-4" d="M180.9,307.127h-5.151a.5.5,0,0,1-.5-.554l5.739-53a.5.5,0,0,1,.5-.446h5.152a.5.5,0,0,1,.372.166.5.5,0,0,1,.125.388l-5.74,53A.5.5,0,0,1,180.9,307.127Zm-4.594-1h4.146l5.631-52h-4.146Z"/><path class="cls-4" d="M258.519,307.127h-5.152a.5.5,0,0,1-.5-.446l-5.739-53a.5.5,0,0,1,.5-.554h5.151a.5.5,0,0,1,.5.446l5.74,53a.5.5,0,0,1-.5.554Zm-4.7-1h4.146l-5.632-52h-4.145Z"/><path class="cls-7" d="M323.48,236.8c2.125-7.263-28.572-18.872-42.085-11.677,0,0,1.323,14.382,18.13,16.816S323.48,236.8,323.48,236.8Z"/><path class="cls-6" d="M323.48,236.8c2.125-7.263-28.572-18.872-42.085-11.677,0,0,1.323,14.382,18.13,16.816S323.48,236.8,323.48,236.8Z"/><path class="cls-7" d="M281.4,225.121l.512,34.4s1,6.8,10.509,9.35a27.03,27.03,0,0,0,17.618-1.546L323.48,236.8s-7.187,7.264-22.641,3.323S281.4,225.121,281.4,225.121Z"/><path class="cls-6" d="M300.27,239.97l-6.543,3.113,1.96,6.825-3.925.876a5.686,5.686,0,0,0-4.431,5.109l-.8,10.269a22.2,22.2,0,0,1-4.485-4.856l1.362-2.072-.039-16.478,6.045-7.739A17.923,17.923,0,0,0,300.27,239.97Z"/><path class="cls-4" d="M298.9,270.211a25.5,25.5,0,0,1-6.619-.861c-9.71-2.606-10.831-9.469-10.875-9.76l-.516-34.461a.5.5,0,0,1,.41-.5.492.492,0,0,1,.559.321c.04.108,4.1,10.861,19.1,14.686,14.958,3.817,22.091-3.12,22.162-3.192a.5.5,0,0,1,.813.554l-13.446,30.523a.5.5,0,0,1-.232.246A27.271,27.271,0,0,1,298.9,270.211Zm-16.977-42.867.478,32.165c.035.2,1.093,6.447,10.14,8.874a26.779,26.779,0,0,0,17.105-1.434l12.569-28.531c-2.937,1.948-9.92,5.142-21.505,2.187a31.139,31.139,0,0,1-15.766-9.127A24.511,24.511,0,0,1,281.928,227.344Z"/><path class="cls-8" d="M272.788,149.634c9.35,7.805,7.959,41.534,7.959,41.534L302.539,207.4l-3.959,10.917L262.2,198.007s-15.764,4.057-26.659,2.666S215.3,188.942,215.3,188.942s7.3-17.244,7.048-27.677S230.4,144.21,230.4,144.21a70.886,70.886,0,0,1,13.332-5.549,23.792,23.792,0,0,1,11.629,0l11.812,6.8,1.441,1.24A4.72,4.72,0,0,0,272.788,149.634Z"/><path class="cls-9" d="M239.1,140.052h0a48.522,48.522,0,0,1,7.008,28.144h0a30.248,30.248,0,0,1-8.558,19.338l-5.25,5.373s-12.827-.049-17-3.965c0,0-22.1,27.147-20.709,43.065S214.215,248.7,224.261,248.7l-.464,14.837,3.208,4.173,18.738-1.546,2.627-4.327-1.082-14.373,15.918-2.164-1.7,15.919,1.7,4.636,16.382.155,3.555-6.8V232.182a15.128,15.128,0,0,0-10.9-14.526L257.8,213.449s12.209-19.151,15.146-35.533-.155-28.282-.155-28.282l-4.172-2.936s4.172,21.018-4.173,39.409l-14.327-3.091s2.982-20.555,0-30.446-6.382-13.909-6.382-13.909Z"/><path class="cls-1" d="M256.408,122.51l-2.612,3.595a10.567,10.567,0,0,1-9.95,4.261h0a10.567,10.567,0,0,1-9.091-9.236l-.155-1.318a10.565,10.565,0,0,1,5.778-10.692l4.691-2.339h0A11.9,11.9,0,0,1,257.292,96.6l.439.017h0a6.828,6.828,0,0,1,7.656-2.2l1.788.638h0a5.23,5.23,0,0,1,6.619-2.994l2.825,1.009,1.772-3.663a5.56,5.56,0,0,1,2.924-2.734h0a5.559,5.559,0,0,1,7.107,2.784l.18.381a5.565,5.565,0,0,1,.526,2.624l-.3,6.563,2.349-.181a7.222,7.222,0,0,1,6.915,3.782h0a7.221,7.221,0,0,1-1.224,8.5l-7.378,7.466L261.1,122.9Z"/><path class="cls-2" d="M288.348,121.923l-7.006,14.624a10.4,10.4,0,0,1-14.618,4.49h0l-.289.4a2.821,2.821,0,0,0,.481,3.8l.259.217s-2.8,7.038-9.113,5.143-6.406-12.181-6.406-12.181l7.218-13.083-1.557-1.434a4.972,4.972,0,0,1-.268-7.045h0a4.971,4.971,0,0,1,7.089-.189h0a2.7,2.7,0,0,1,.476,3.268l-.327.578,1.985,1.3,2.547-3.578a5.95,5.95,0,0,1,3.313-2.3h0a5.117,5.117,0,0,0,3.6-3.537l.559-1.955,2,.97a8.265,8.265,0,0,0,8.525-.785l1.84-1.358.51,1.653A15.123,15.123,0,0,1,288.348,121.923Z"/><path class="cls-2" d="M254.929,132.487l-3.273,5.933s.09,10.286,6.406,12.181,9.113-5.143,9.113-5.143S257.515,147.884,254.929,132.487Z"/><path class="cls-3" d="M271.43,120.181c4.25.464,6.182-4.636,6.182-4.636s6.748,2.685,11.984-2.726a14.97,14.97,0,0,0-.437-1.889l-.51-1.653-1.84,1.358a8.264,8.264,0,0,1-8.525.785l-2-.97-.559,1.955a5.117,5.117,0,0,1-3.6,3.537,5.95,5.95,0,0,0-3.313,2.3l-2.547,3.577-1.985-1.3.327-.578a2.7,2.7,0,0,0-.476-3.268,4.971,4.971,0,0,0-7.089.189h0a4.972,4.972,0,0,0,.268,7.045l1.557,1.434-3.945,7.15c2.586,15.4,12.246,12.971,12.246,12.971l-.259-.217a2.821,2.821,0,0,1-.481-3.8l.289-.4C259.853,134.075,271.43,120.181,271.43,120.181Z"/><path class="cls-2" d="M270.432,231.457l2.95,8.773a3.488,3.488,0,0,0,3.459,2.372l1.268-.055,1.247.443a7.24,7.24,0,0,0,3.728.3l.893-.163h0a3.8,3.8,0,0,0,3.474.12l.689-.325,6.056,6.662a1.567,1.567,0,0,0,2.021.07,1.435,1.435,0,0,0,.288-1.96l-7.914-13.137,2.036,1.137-3.031-4.506a7.351,7.351,0,0,0-4.361-3.585l-4.853-1.468Z"/><path class="cls-3" d="M286.387,240.081a1.74,1.74,0,0,1-2.322.453l-1.033-.641a.805.805,0,0,0-.939.067l-.875.734a1.741,1.741,0,0,1-1.81.262l-1.949-.847-.521-.719a6.572,6.572,0,0,1,.4-8.212l3.739-4.229h0l-2.691-.814-7.951,5.322,2.951,8.773a3.488,3.488,0,0,0,3.459,2.372l1.268-.055,1.247.443a7.24,7.24,0,0,0,3.728.3l.893-.163a3.8,3.8,0,0,0,3.475.12l.688-.325,6.056,6.662a1.457,1.457,0,0,0,1.491.324l-8.029-9.861A.8.8,0,0,0,286.387,240.081Z"/><path class="cls-4" d="M295.194,250.485a1.9,1.9,0,0,1-1.347-.544l-5.828-6.409-.354.167a4.3,4.3,0,0,1-3.768-.049l-.723.132a7.75,7.75,0,0,1-3.985-.321l-1.156-.41-1.171.052a4.051,4.051,0,0,1-3.954-2.714l-2.95-8.773a.5.5,0,0,1,.195-.574l7.951-5.322a.488.488,0,0,1,.422-.064l4.854,1.469a7.893,7.893,0,0,1,4.657,3.829l3,4.461a.5.5,0,0,1-.659.716l-.393-.22,6.944,11.525a1.918,1.918,0,0,1-.438,2.633A2.339,2.339,0,0,1,295.194,250.485Zm-7.054-8.063a.5.5,0,0,1,.37.164l6.056,6.662a1.08,1.08,0,0,0,1.374-.009.954.954,0,0,0,.145-1.274l-7.923-13.15a.5.5,0,0,1,.673-.694l.21.117-1.864-2.77a6.933,6.933,0,0,0-4.09-3.386l-4.627-1.4-7.437,4.978,2.829,8.41a2.984,2.984,0,0,0,2.963,2.033l1.268-.056a.616.616,0,0,1,.189.029l1.247.444a6.73,6.73,0,0,0,3.471.278l.894-.163a.515.515,0,0,1,.334.055,3.3,3.3,0,0,0,3.016.1l.688-.325A.488.488,0,0,1,288.14,242.422Z"/><path class="cls-2" d="M302.29,208.2l-2.765,7.166.611.644a15.92,15.92,0,0,0,7.683,4.483l.168.042.254-.963,4.266,1.185a1.96,1.96,0,0,0,2.018-.618h0a1.482,1.482,0,0,0,.354-.96v-1.026l.333-.208a1.481,1.481,0,0,0,.663-1.569l-.185-.858.62-.436a1.483,1.483,0,0,0,.612-1.431l-.168-1.122h0a1.482,1.482,0,0,0-.214-2.194l-1.357-1,.455-.422a3.454,3.454,0,0,0,1.086-2.206h0a.587.587,0,0,0-.755-.616l-2.949.89a10.09,10.09,0,0,1-3.244.425l-1.443-.047a14.519,14.519,0,0,0-2.5.217Z"/><path class="cls-8" d="M222.345,161.265l9.368,35.654a33.137,33.137,0,0,0,11.5,17.574l24.9,19.678,10.269-8.036-27.8-29.519-7.666-44.839a9.6,9.6,0,0,0-15.1-6.207l-.27.2A14.754,14.754,0,0,0,222.345,161.265Z"/><path class="cls-4" d="M268.113,234.671a.5.5,0,0,1-.309-.108l-24.9-19.678a33.824,33.824,0,0,1-11.673-17.839l-9.368-35.654a15.182,15.182,0,0,1,5.388-16.016l.273-.206a9.847,9.847,0,0,1,9.612-1.227,10.137,10.137,0,0,1,6.28,7.749l7.64,44.691,27.691,29.409a.5.5,0,0,1-.056.736l-10.268,8.036A.5.5,0,0,1,268.113,234.671Zm-45.284-73.533,9.367,35.654A32.826,32.826,0,0,0,243.523,214.1l24.592,19.435,9.528-7.456-27.42-29.12a.487.487,0,0,1-.129-.259l-7.665-44.84a9.146,9.146,0,0,0-5.665-6.989,8.857,8.857,0,0,0-8.643,1.1l-.265.2a14.186,14.186,0,0,0-5.027,14.967Z"/><path class="cls-8" d="M245.743,266.162l-2.9,29.673a19.915,19.915,0,0,1,6.027,13.909H224.415s1.739-6.607,3.478-13.445-.888-28.591-.888-28.591Z"/><path class="cls-8" d="M263.206,265.853l-5.061,43.891H295.12s.116-5.216-6.491-8.693a50.949,50.949,0,0,0-11.243-4.521l3.477-30.368Z"/><path class="cls-4" d="M248.872,310.244H224.415a.5.5,0,0,1-.483-.627s1.738-6.605,3.476-13.441c1.625-6.393-.667-26.424-.884-28.274L223.4,263.84a.507.507,0,0,1-.1-.32l.448-14.322c-8.2-.008-28.189-.363-29.655-17.146-1.375-15.731,19.361-41.627,20.773-43.37.485-1.162,7.192-17.454,6.984-27.348a15.178,15.178,0,0,1,5.4-15.958l.273-.206a9.882,9.882,0,0,1,2.648-1.4,81.252,81.252,0,0,1,8.551-3.969.417.417,0,0,1,.232-.229l2.289-.687c.807-.271,1.607-.51,2.363-.709a24.084,24.084,0,0,1,7.972-.652l6.669-12.088-1.268-1.167a4.866,4.866,0,0,1-.674-.768L254.2,126.4a11.065,11.065,0,0,1-19.941-5.209l-.155-1.319a11.09,11.09,0,0,1,6.051-11.2l4.46-2.225a12.4,12.4,0,0,1,12.7-10.349l.19.007a7.323,7.323,0,0,1,8.054-2.164l1.352.483a5.7,5.7,0,0,1,7.055-2.838l2.4.857,1.577-3.259a6.059,6.059,0,0,1,10.934.054l.181.381a6.091,6.091,0,0,1,.572,2.86l-.272,6,1.785-.137a7.723,7.723,0,0,1,6.085,13.128l-7.3,7.385a15.58,15.58,0,0,1-1.127,3.285l-7.006,14.624a10.9,10.9,0,0,1-14.922,4.927,2.728,2.728,0,0,0-.451,1.411,2.225,2.225,0,0,0,.008.251,2.325,2.325,0,0,0,.809,1.506l1.7,1.46,4.135,2.907c9.127,7.616,8.3,38.282,8.181,41.7l21.58,16.07a.5.5,0,0,1,.171.572h0l2.741-.481a15.075,15.075,0,0,1,2.584-.226l1.46.048a9.536,9.536,0,0,0,3.083-.4l2.948-.891a1.088,1.088,0,0,1,1.4,1.141,3.946,3.946,0,0,1-1.243,2.526l-.013.012.87.641a1.978,1.978,0,0,1,.444,2.737l.136.906a1.973,1.973,0,0,1-.818,1.915l-.35.245.115.534a1.982,1.982,0,0,1-.886,2.1l-.1.062v.748a1.994,1.994,0,0,1-.472,1.284,2.466,2.466,0,0,1-2.535.775L308.6,220.19l-.124.473a.5.5,0,0,1-.605.358l-.168-.042a16.384,16.384,0,0,1-7.889-4.587l-.76,2.091a.5.5,0,0,1-.295.3.508.508,0,0,1-.419-.032l-32.822-18.321c-1.174,2.422-2.445,4.871-3.783,7.292l8.241,8.753,2.412.7a15.729,15.729,0,0,1,9.217,7.28c10.724-5.264,31.336.243,39.363,6.775,2.466,2.007,3.5,3.981,3,5.708l-13.467,30.584a.5.5,0,0,1-.232.246,27.28,27.28,0,0,1-17.974,1.582c-6.133-1.646-8.846-5.007-10.028-7.37l-2.227,4.259a.448.448,0,0,1-.448.269l-16.382-.155a.5.5,0,0,1-.465-.329l-1.7-4.635a.506.506,0,0,1-.027-.225l1.632-15.285-14.82,2.015,1.047,13.9a.5.5,0,0,1-.071.3l-2.569,4.229-2.863,29.313a20.257,20.257,0,0,1,6.006,14.107A.5.5,0,0,1,248.872,310.244Zm-23.808-1h23.3a19.64,19.64,0,0,0-5.852-13.035.5.5,0,0,1-.166-.423l2.9-29.673a.5.5,0,0,1,.071-.211l2.544-4.189-1.07-14.214a.5.5,0,0,1,.432-.532l15.918-2.164a.5.5,0,0,1,.564.548l-1.686,15.8,1.54,4.2,15.729.15,2.566-4.906a.5.5,0,0,1,.91.051c.816,2.127,3.174,5.96,9.784,7.733a26.779,26.779,0,0,0,17.105-1.434L323.022,236.6c.462-1.595-1.206-3.383-2.691-4.591-7.751-6.308-28.612-11.818-38.7-6.444a.494.494,0,0,1-.382.037.5.5,0,0,1-.3-.245,14.714,14.714,0,0,0-8.848-7.218l-2.543-.741a.514.514,0,0,1-.225-.137l-8.585-9.118a.5.5,0,0,1-.073-.586c1.483-2.668,2.885-5.372,4.164-8.038a.5.5,0,0,1,.695-.22L298.31,217.59l.835-2.3a.5.5,0,0,1,.832-.173l.521.55a15.4,15.4,0,0,0,7.132,4.261l.127-.482a.5.5,0,0,1,.234-.306.489.489,0,0,1,.383-.048l4.267,1.184a1.468,1.468,0,0,0,1.5-.46.983.983,0,0,0,.234-.636v-1.026a.5.5,0,0,1,.235-.424l.333-.208a.984.984,0,0,0,.44-1.04l-.186-.857a.5.5,0,0,1,.2-.515l.621-.436a.98.98,0,0,0,.406-.948l-.168-1.123a.5.5,0,0,1,.125-.412.98.98,0,0,0-.141-1.453l-1.357-1a.5.5,0,0,1-.044-.768l.455-.422a2.946,2.946,0,0,0,.928-1.886l-.257-.57.144.478-2.948.891a10.525,10.525,0,0,1-3.405.446l-1.444-.048a14.008,14.008,0,0,0-2.394.21l-3.267.575-.627,1.624a.5.5,0,0,1-.936-.351l.849-2.344-21.493-16.005a.5.5,0,0,1-.2-.422c.015-.335,1.276-33.572-7.779-41.129l-4.141-2.912-1.732-1.482a3.307,3.307,0,0,1-1.156-2.11,3.4,3.4,0,0,1-.019-.4,3.938,3.938,0,0,1,.912-2.387.5.5,0,0,1,.644-.122,9.9,9.9,0,0,0,13.915-4.274l7.006-14.624a14.623,14.623,0,0,0,1.088-3.228.5.5,0,0,1,.215-.312l7.314-7.4a6.722,6.722,0,0,0-5.3-11.427l-2.349.18a.465.465,0,0,1-.386-.139A.5.5,0,0,1,288.33,99l.3-6.562a5.089,5.089,0,0,0-.479-2.389l-.18-.381a5.059,5.059,0,0,0-9.129-.046l-1.773,3.664a.5.5,0,0,1-.618.253l-2.824-1.009a4.714,4.714,0,0,0-5.986,2.707.5.5,0,0,1-.633.286l-1.788-.637a6.331,6.331,0,0,0-7.1,2.041.5.5,0,0,1-.411.19l-.439-.016a11.345,11.345,0,0,0-11.708,9.753.5.5,0,0,1-.272.376l-4.691,2.339a10.092,10.092,0,0,0-5.506,10.186l.155,1.319a10.067,10.067,0,0,0,18.141,4.739l2.54-3.5a.5.5,0,0,1,.843.056,4.424,4.424,0,0,0,.881,1.165l1.557,1.433a.5.5,0,0,1,.1.609L252.3,138.294a.5.5,0,0,1-.485.257,23.159,23.159,0,0,0-7.951.594c-.735.193-1.514.427-2.315.695l-1.977.593a.456.456,0,0,1-.224.2,81.447,81.447,0,0,0-8.668,4l-.042.029a.5.5,0,0,1-.094.044,8.891,8.891,0,0,0-2.419,1.268l-.265.2a14.186,14.186,0,0,0-5.027,14.967.492.492,0,0,1,.017.115c.248,10.421-6.789,27.175-7.088,27.884a.507.507,0,0,1-.073.12c-.22.27-21.956,27.173-20.6,42.707,1.257,14.389,16.252,16.234,29.175,16.234a.5.5,0,0,1,.5.516l-.459,14.658,3.1,4.03a.5.5,0,0,1,.1.245c.108.892,2.617,21.924.876,28.775C226.957,302.009,225.536,307.44,225.064,309.244Z"/><path class="cls-4" d="M295.12,310.244H258.145a.5.5,0,0,1-.373-.167.5.5,0,0,1-.124-.39l5.061-43.892a.49.49,0,0,1,.506-.442l17.657.309a.5.5,0,0,1,.488.557l-3.427,29.932a54,54,0,0,1,10.928,4.457c6.8,3.58,6.764,8.921,6.759,9.147A.5.5,0,0,1,295.12,310.244Zm-36.415-1h35.884c-.155-1.329-1.052-5.045-6.192-7.751a51,51,0,0,0-11.122-4.475.5.5,0,0,1-.386-.544l3.415-29.822-16.654-.292Z"/><path class="cls-4" d="M261.153,123.109a.5.5,0,0,1-.371-.835,3.015,3.015,0,0,0-.851-4.792.5.5,0,1,1,.474-.88,4.012,4.012,0,0,1,1.119,6.342A.494.494,0,0,1,261.153,123.109Z"/><path class="cls-4" d="M258.545,120.669a.5.5,0,0,1-.376-.827,4.07,4.07,0,0,1,3.941-1.044.5.5,0,1,1-.22.974,3.117,3.117,0,0,0-2.971.731A.5.5,0,0,1,258.545,120.669Z"/><path class="cls-4" d="M266.723,141.537a.5.5,0,0,1-.217-.05,13.076,13.076,0,0,1-6.733-11.384.5.5,0,0,1,.5-.5h0a.5.5,0,0,1,.5.5,11.845,11.845,0,0,0,6.169,10.49.5.5,0,0,1-.219.949Z"/><path class="cls-4" d="M260.367,151.277a8.473,8.473,0,0,1-7.224-4.465,17.033,17.033,0,0,1-1.987-8.415.491.491,0,0,1,.523-.475.5.5,0,0,1,.475.522,16.326,16.326,0,0,0,1.853,7.865c1.943,3.338,5.549,4.78,8.758,3.5a7.046,7.046,0,0,0,3.925-4.476.5.5,0,1,1,.97.24,7.983,7.983,0,0,1-4.526,5.166A7.485,7.485,0,0,1,260.367,151.277Z"/><path class="cls-4" d="M282.539,227.893a.5.5,0,0,1-.446-.276l-1.145-2.271a.5.5,0,0,1,.893-.45l1.144,2.272a.5.5,0,0,1-.221.671A.506.506,0,0,1,282.539,227.893Z"/><path class="cls-4" d="M282.3,261.33a.493.493,0,0,1-.231-.057.5.5,0,0,1-.212-.674l.791-1.513-.059-15.794a.5.5,0,0,1,.5-.5h0a.5.5,0,0,1,.5.5l.059,15.918a.511.511,0,0,1-.057.233l-.848,1.623A.5.5,0,0,1,282.3,261.33Z"/><path class="cls-4" d="M247.287,247.962a.5.5,0,0,1-.5-.447l-1.566-14.763a19.883,19.883,0,0,0-13.952-16.984,66.709,66.709,0,0,0-13.972-2.9.5.5,0,1,1,.076-1,67.662,67.662,0,0,1,14.188,2.941,20.879,20.879,0,0,1,14.654,17.835l1.566,14.763a.5.5,0,0,1-.444.55A.489.489,0,0,1,247.287,247.962Z"/><path class="cls-4" d="M227,268.207a.5.5,0,0,1-.04-1l18.737-1.545a.517.517,0,0,1,.539.457.5.5,0,0,1-.457.539l-18.737,1.545Z"/><path class="cls-4" d="M248.6,307.127H225.231a.5.5,0,1,1,0-1H248.6a.5.5,0,1,1,0,1Z"/><path class="cls-4" d="M294.315,307.127h-.006l-35.752-.514a.5.5,0,0,1,.007-1h.006l35.752.514a.5.5,0,0,1-.007,1Z"/><path class="cls-4" d="M264.165,306.694a.5.5,0,0,1-.5-.461,5.964,5.964,0,0,0-4.539-5.437.5.5,0,0,1,.208-.979,7.068,7.068,0,0,1,5.327,6.338.5.5,0,0,1-.459.537Z"/><path class="cls-4" d="M224.261,249.2a.5.5,0,0,1-.5-.5v-7.2a.5.5,0,0,1,1,0v7.2A.5.5,0,0,1,224.261,249.2Z"/><path class="cls-4" d="M230.647,193.358h-.018c-11.865-.424-15.533-3.913-15.683-4.06a.5.5,0,0,1,.7-.714c.043.042,3.629,3.367,15.017,3.774a.5.5,0,0,1-.017,1Z"/><path class="cls-4" d="M246.051,169.437h-.032a.5.5,0,0,1-.468-.531c.006-.091.552-9.2-1.111-16.232a35.417,35.417,0,0,0-5.67-12.2.5.5,0,1,1,.789-.616,35.765,35.765,0,0,1,5.853,12.584c1.7,7.176,1.143,16.433,1.137,16.526A.5.5,0,0,1,246.051,169.437Z"/><path class="cls-4" d="M266.724,187.136a.494.494,0,0,1-.107-.012l-16.607-3.619a.5.5,0,0,1-.382-.6c.029-.131,2.879-13.2.955-25.262-1.916-12.007-7.185-18.6-7.237-18.669a.5.5,0,1,1,.775-.631c.223.273,5.488,6.85,7.45,19.142,1.742,10.919-.365,22.631-.865,25.146l16.124,3.513a.5.5,0,0,1-.106.989Z"/><path class="cls-4" d="M264.442,186.607a.5.5,0,0,1-.426-.761c.03-.049,3.013-5.034,4.523-16.506a83.608,83.608,0,0,0-.416-22.555.5.5,0,0,1,.984-.176,84.722,84.722,0,0,1,.424,22.862c-1.542,11.715-4.536,16.692-4.663,16.9A.5.5,0,0,1,264.442,186.607Z"/><path class="cls-4" d="M265.293,200.232a.5.5,0,0,1-.427-.76c.052-.084,5.195-8.638,7.786-22.827a73.585,73.585,0,0,0-.35-26.9.5.5,0,1,1,.972-.23,74.576,74.576,0,0,1,.363,27.305c-2.628,14.386-7.864,23.082-7.917,23.169A.5.5,0,0,1,265.293,200.232Z"/><path class="cls-4" d="M274.907,193.7a.5.5,0,0,1-.263-.925l3.709-2.3a.5.5,0,1,1,.527.849l-3.709,2.3A.5.5,0,0,1,274.907,193.7Z"/><path class="cls-4" d="M265.293,232.442a.5.5,0,0,1-.314-.888l10.538-8.517a.5.5,0,1,1,.629.777l-10.539,8.517A.5.5,0,0,1,265.293,232.442Z"/><path class="cls-6" d="M246.128,236.524l14.716,2.567a12.479,12.479,0,0,0,4.993-.144h0a2.745,2.745,0,0,1,3.342,3.07L266.8,258.284a1.737,1.737,0,0,0,.123.939l2.845,6.63-6.669-.157-1.588-4.48,1.7-15.918-15.73,1.708Z"/><path class="cls-4" d="M289.492,119.083a.457.457,0,0,1-.1-.01.5.5,0,0,1-.394-.587c.012-.061,1.184-6.222-1.381-10.327a.5.5,0,0,1,.848-.529c2.777,4.443,1.566,10.782,1.513,11.05A.5.5,0,0,1,289.492,119.083Z"/><path class="cls-4" d="M278.908,134.965a8.673,8.673,0,0,1-7.507-4.617.5.5,0,0,1,.87-.5,7.7,7.7,0,0,0,6.832,4.106.5.5,0,1,1,.072,1C279.15,134.958,279.058,134.965,278.908,134.965Z"/><circle class="cls-4" cx="276.183" cy="123.304" r="0.695"/><circle class="cls-4" cx="283.838" cy="126.742" r="0.695"/><path class="cls-4" d="M277.694,131.318a2.51,2.51,0,0,1-1.776-.733l-.782-.771a.5.5,0,1,1,.7-.712l.782.771a1.54,1.54,0,0,0,2.447-.38l1.038-1.974a.5.5,0,0,1,.885.464l-1.038,1.975a2.518,2.518,0,0,1-1.86,1.33A2.571,2.571,0,0,1,277.694,131.318Z"/><path class="cls-4" d="M260.158,151.426a7.763,7.763,0,0,1-2.24-.346c-6.593-1.978-6.759-12.22-6.763-12.654a.49.49,0,0,1,.063-.246l7.029-12.741-1.268-1.168a5.472,5.472,0,1,1,7.506-7.962,3.2,3.2,0,0,1,.565,3.875l-.1.17,1.192.783,2.267-3.186A6.474,6.474,0,0,1,272,115.458a4.633,4.633,0,0,0,3.245-3.189l.56-1.957a.5.5,0,0,1,.276-.319.508.508,0,0,1,.423.007l2,.97a7.746,7.746,0,0,0,8.01-.737l1.839-1.358a.487.487,0,0,1,.453-.072.5.5,0,0,1,.321.327l.511,1.653a15.578,15.578,0,0,1-.838,11.356h0l-7.006,14.624a10.9,10.9,0,0,1-14.922,4.927l-.03.042a2.334,2.334,0,0,0,.4,3.126l.259.217a.5.5,0,0,1,.144.568C267.613,145.708,265.274,151.426,260.158,151.426Zm-8-12.882c.04,1.164.527,9.922,6.047,11.579,5.121,1.531,7.739-3.2,8.361-4.522a3.343,3.343,0,0,1-.539-4.451l.29-.4a.5.5,0,0,1,.659-.141,9.9,9.9,0,0,0,13.915-4.274l7.006-14.624a14.584,14.584,0,0,0,.785-10.629l-.3-.979-1.273.939a8.737,8.737,0,0,1-9.041.831l-1.459-.709-.4,1.383a5.637,5.637,0,0,1-3.948,3.882,5.465,5.465,0,0,0-3.034,2.106l-2.547,3.577a.5.5,0,0,1-.682.128l-1.985-1.3a.5.5,0,0,1-.161-.664l.327-.579a2.2,2.2,0,0,0-.388-2.663,4.315,4.315,0,0,0-3.224-1.251,4.471,4.471,0,0,0-2.911,7.758l1.557,1.436a.5.5,0,0,1,.1.608Zm36.19-16.621h0Z"/><path class="cls-4" d="M299.614,215.961a.508.508,0,0,1-.17-.03.5.5,0,0,1-.3-.64l1.947-5.372a.5.5,0,1,1,.939.34l-1.947,5.372A.5.5,0,0,1,299.614,215.961Z"/><path class="cls-1" d="M308.241,219.573s-1.6,5.04-2.8,7.783,2.048,5.6,4.25,2.743,2.292-9.487,2.292-9.487Z"/><path class="cls-4" d="M307.617,231.778a2.683,2.683,0,0,1-1.36-.373,3.353,3.353,0,0,1-1.274-4.25c1.173-2.687,2.765-7.683,2.781-7.733a.5.5,0,0,1,.61-.33l3.742,1.039a.5.5,0,0,1,.366.488c0,.277-.117,6.828-2.394,9.784A3.11,3.11,0,0,1,307.617,231.778Zm.952-11.594c-.425,1.311-1.673,5.09-2.67,7.372a2.353,2.353,0,0,0,.867,2.989,1.884,1.884,0,0,0,2.529-.751c1.78-2.311,2.115-7.373,2.175-8.805Z"/><path class="cls-2" d="M302.7,239.949l-1.237-.287,4.79-10.109a2,2,0,0,0,1.071.507Z"/><path class="cls-4" d="M308.24,220.073a.48.48,0,0,1-.195-.04l-.4-.17a1.938,1.938,0,0,1,1.243-3.66l6.259,1.625a.5.5,0,1,1-.251.969l-6.26-1.625a.943.943,0,0,0-1.13.626.933.933,0,0,0,.528,1.144l.4.171a.5.5,0,0,1-.2.96Z"/><path class="cls-4" d="M307.44,216.845a.518.518,0,0,1-.209-.045.5.5,0,0,1-.247-.663l.683-1.494a2.279,2.279,0,0,1,2.718-1.231l5.448,1.628a.5.5,0,0,1-.287.959L310.1,214.37a1.274,1.274,0,0,0-1.522.689l-.681,1.494A.5.5,0,0,1,307.44,216.845Z"/><path class="cls-4" d="M308.583,213.948a.516.516,0,0,1-.163-.027.5.5,0,0,1-.31-.636l.414-1.2a1.724,1.724,0,0,1,1.95-1.15l6.365,1.1a.5.5,0,0,1-.17.984l-6.366-1.1a.741.741,0,0,0-.833.492l-.414,1.2A.5.5,0,0,1,308.583,213.948Z"/><path class="cls-4" d="M309.344,211.744h-.037a.5.5,0,0,1-.463-.535l.079-1.084a1.61,1.61,0,0,1,1.638-1.465l4.641.178a.5.5,0,0,1,.481.519.475.475,0,0,1-.52.481l-4.641-.178a.564.564,0,0,0-.6.537l-.079,1.084A.5.5,0,0,1,309.344,211.744Z"/></g></g></svg>